<svg xmlns="http://www.w3.org/2000/svg" viewBox="0 0 160.88 20"><defs><style>.cls-1{fill:#2f64af;}.cls-2{fill:#040000;}.cls-3{fill:#caa191;}.cls-4{fill:#fff;}.cls-5{fill:#2e67b1;}.cls-6{fill:#d2aa98;}</style></defs><g id="レイヤー_2" data-name="レイヤー 2"><g id="レイヤー_1-2" data-name="レイヤー 1"><rect class="cls-1" x="20" y="15.38" width="1.54" height="1.54"/><rect class="cls-1" x="18.46" y="16.92" width="1.54" height="1.54"/><rect class="cls-2" x="18.46" y="15.38" width="1.54" height="1.54"/><rect class="cls-2" x="18.46" y="13.85" width="1.54" height="1.54"/><rect class="cls-1" x="16.92" y="16.92" width="1.54" height="1.54"/><rect class="cls-2" x="16.92" y="15.38" width="1.54" height="1.54"/><rect class="cls-2" x="16.92" y="13.85" width="1.54" height="1.54"/><rect class="cls-2" x="16.92" y="12.31" width="1.54" height="1.54"/><rect class="cls-3" x="15.38" y="18.46" width="1.54" height="1.54"/><rect class="cls-1" x="15.38" y="16.92" width="1.54" height="1.54"/><rect class="cls-1" x="15.38" y="15.38" width="1.54" height="1.54"/><rect class="cls-2" x="15.38" y="13.85" width="1.54" height="1.54"/><rect class="cls-1" x="15.38" y="12.31" width="1.54" height="1.54"/><rect class="cls-1" x="15.38" y="10.77" width="1.54" height="1.54"/><rect class="cls-1" x="15.38" y="9.23" width="1.54" height="1.54"/><rect class="cls-4" x="13.85" y="18.46" width="1.54" height="1.54"/><rect class="cls-1" x="13.85" y="16.92" width="1.54" height="1.54"/><rect class="cls-1" x="13.85" y="15.38" width="1.54" height="1.54"/><rect class="cls-5" x="13.85" y="13.85" width="1.54" height="1.54"/><rect class="cls-1" x="13.85" y="12.31" width="1.54" height="1.54"/><rect class="cls-1" x="13.85" y="10.77" width="1.54" height="1.54"/><rect class="cls-1" x="13.85" y="9.23" width="1.54" height="1.54"/><rect class="cls-1" x="13.85" y="7.69" width="1.54" height="1.54"/><rect class="cls-4" x="12.31" y="18.46" width="1.54" height="1.54"/><rect class="cls-1" x="12.31" y="16.92" width="1.54" height="1.54"/><rect class="cls-1" x="12.31" y="15.38" width="1.54" height="1.54"/><rect class="cls-5" x="12.31" y="13.85" width="1.54" height="1.54"/><rect class="cls-5" x="12.31" y="12.31" width="1.54" height="1.54"/><rect class="cls-4" x="12.31" y="10.77" width="1.54" height="1.54"/><rect class="cls-1" x="12.31" y="9.23" width="1.54" height="1.54"/><rect class="cls-1" x="12.31" y="7.69" width="1.54" height="1.54"/><rect class="cls-1" x="12.31" y="6.15" width="1.54" height="1.54"/><rect class="cls-3" x="10.77" y="18.46" width="1.54" height="1.54"/><rect class="cls-1" x="10.77" y="16.92" width="1.54" height="1.54"/><rect class="cls-1" x="10.77" y="15.38" width="1.54" height="1.54"/><rect class="cls-4" x="10.77" y="13.85" width="1.54" height="1.54"/><rect class="cls-5" x="10.77" y="12.31" width="1.54" height="1.54"/><rect class="cls-5" x="10.77" y="10.77" width="1.54" height="1.54"/><rect class="cls-5" x="10.77" y="9.23" width="1.54" height="1.54"/><rect class="cls-1" x="10.77" y="7.69" width="1.54" height="1.54"/><rect class="cls-1" x="10.77" y="6.15" width="1.54" height="1.54"/><rect class="cls-1" x="10.77" y="4.62" width="1.54" height="1.54"/><rect class="cls-6" x="9.23" y="18.46" width="1.54" height="1.54"/><rect class="cls-1" x="9.23" y="16.92" width="1.54" height="1.54"/><rect class="cls-1" x="9.23" y="15.38" width="1.54" height="1.54"/><rect class="cls-4" x="9.23" y="13.85" width="1.54" height="1.54"/><rect class="cls-5" x="9.23" y="12.31" width="1.54" height="1.54"/><rect class="cls-5" x="9.23" y="10.77" width="1.54" height="1.54"/><rect class="cls-4" x="9.23" y="9.23" width="1.54" height="1.54"/><rect class="cls-5" x="9.23" y="7.69" width="1.54" height="1.54"/><rect class="cls-1" x="9.23" y="6.15" width="1.54" height="1.54"/><rect class="cls-1" x="9.23" y="4.62" width="1.54" height="1.54"/><rect class="cls-1" x="9.23" y="3.08" width="1.54" height="1.54"/><rect class="cls-4" x="7.69" y="18.46" width="1.54" height="1.54"/><rect class="cls-1" x="7.69" y="16.92" width="1.54" height="1.54"/><rect class="cls-1" x="7.69" y="15.38" width="1.54" height="1.54"/><rect class="cls-5" x="7.69" y="13.85" width="1.54" height="1.54"/><rect class="cls-4" x="7.69" y="12.31" width="1.54" height="1.54"/><rect class="cls-4" x="7.69" y="10.77" width="1.54" height="1.54"/><rect class="cls-5" x="7.69" y="9.23" width="1.54" height="1.54"/><rect class="cls-5" x="7.69" y="7.69" width="1.54" height="1.54"/><rect class="cls-4" x="7.69" y="6.15" width="1.54" height="1.54"/><rect class="cls-1" x="7.69" y="4.62" width="1.54" height="1.54"/><rect class="cls-1" x="7.69" y="3.08" width="1.54" height="1.54"/><rect class="cls-1" x="7.69" y="1.54" width="1.54" height="1.54"/><rect class="cls-4" x="6.15" y="18.46" width="1.54" height="1.54"/><rect class="cls-1" x="6.15" y="16.92" width="1.54" height="1.54"/><rect class="cls-1" x="6.15" y="15.38" width="1.54" height="1.54"/><rect class="cls-5" x="6.15" y="13.85" width="1.54" height="1.54"/><rect class="cls-5" x="6.15" y="12.31" width="1.54" height="1.54"/><rect class="cls-5" x="6.15" y="10.77" width="1.54" height="1.54"/><rect class="cls-5" x="6.15" y="9.23" width="1.54" height="1.54"/><rect class="cls-5" x="6.15" y="7.69" width="1.54" height="1.54"/><rect class="cls-5" x="6.15" y="6.15" width="1.54" height="1.54"/><rect class="cls-5" x="6.15" y="4.62" width="1.54" height="1.54"/><rect class="cls-1" x="6.15" y="3.08" width="1.54" height="1.54"/><rect class="cls-1" x="6.15" y="1.54" width="1.54" height="1.54"/><rect class="cls-1" x="6.15" width="1.54" height="1.54"/><rect class="cls-6" x="4.62" y="18.46" width="1.54" height="1.54"/><rect class="cls-1" x="4.62" y="16.92" width="1.54" height="1.54"/><rect class="cls-1" x="4.62" y="15.38" width="1.54" height="1.54"/><rect class="cls-2" x="4.62" y="13.85" width="1.54" height="1.54"/><rect class="cls-1" x="4.62" y="12.31" width="1.54" height="1.54"/><rect class="cls-1" x="4.62" y="10.77" width="1.54" height="1.54"/><rect class="cls-1" x="4.62" y="9.23" width="1.54" height="1.54"/><rect class="cls-1" x="4.62" y="7.69" width="1.54" height="1.54"/><rect class="cls-1" x="4.62" y="6.15" width="1.54" height="1.54"/><rect class="cls-1" x="4.62" y="4.62" width="1.54" height="1.54"/><rect class="cls-1" x="4.62" y="3.08" width="1.54" height="1.54"/><rect class="cls-1" x="4.62" y="1.54" width="1.54" height="1.54"/><rect class="cls-1" x="4.62" width="1.54" height="1.54"/><rect class="cls-1" x="3.08" y="16.92" width="1.54" height="1.54"/><rect class="cls-2" x="3.08" y="15.38" width="1.54" height="1.54"/><rect class="cls-2" x="3.08" y="13.85" width="1.54" height="1.54"/><rect class="cls-2" x="3.08" y="12.31" width="1.54" height="1.54"/><rect class="cls-1" x="3.08" y="4.62" width="1.54" height="1.54"/><rect class="cls-1" x="3.08" y="3.08" width="1.54" height="1.54"/><rect class="cls-1" x="3.08" y="1.54" width="1.54" height="1.54"/><rect class="cls-1" x="3.08" width="1.54" height="1.54"/><rect class="cls-1" x="1.54" y="16.92" width="1.54" height="1.54"/><rect class="cls-2" x="1.54" y="15.38" width="1.54" height="1.54"/><rect class="cls-2" x="1.54" y="13.85" width="1.54" height="1.54"/><rect class="cls-1" x="1.54" y="3.08" width="1.54" height="1.54"/><rect class="cls-1" x="1.54" y="1.54" width="1.54" height="1.54"/><rect class="cls-1" y="15.38" width="1.54" height="1.54"/><path class="cls-2" d="M37.09,16.09a.26.26,0,0,1,.22.08,1.65,1.65,0,0,1,.07.57,2.21,2.21,0,0,1-.2,1.12,2.89,2.89,0,0,0-.87-.11l-.81.08v0l0,0-1.7.18a3.2,3.2,0,0,1-1.6-.39,1.07,1.07,0,0,1-.46-1c0-.39.13-.76.35-.85v.07c0,.11.07.11.24.19a3.25,3.25,0,0,0,1.42.4l0-.05c.2-2.4.37-4.66.37-7a44.41,44.41,0,0,0-.33-5l-.52,0a1.52,1.52,0,0,1-1.64-1.51c0-.72.72-.92,1.55-.92a3.1,3.1,0,0,1,1.8.77,6.54,6.54,0,0,0,1.61-.62,1.35,1.35,0,0,1,1.16,0,3.21,3.21,0,0,1-2.12,2,44.41,44.41,0,0,1,.35,5.27c0,2.3-.2,4.49-.33,6.87a12.39,12.39,0,0,1,1.38-.15A.34.34,0,0,1,37.09,16.09Z"/><path class="cls-2" d="M42.47,10c.59,0,.7.86.75,1.71,0,.7,0,1.36.08,1.64.29-.76,1.08-2.89,2.78-2.89a1.3,1.3,0,0,1,1.16,1.14c0,.85.33,6.54-.33,6.56-1.18.07-1.27-1.79-1.29-2.07s0-1.54,0-2.5a10,10,0,0,1,.06-1.4c-1.07.44-1.46,3.59-1.9,4.84-.06.19-.35.3-.57.3-1.13.05-1.46-4.85-1.46-5.42-1.07.7-2.17,1.46-2.15,4.52,0,.88,0,1.6-.76,1.62-.33,0-.55-.11-.7-.61a15.57,15.57,0,0,1-.26-2.75,13.6,13.6,0,0,1,.24-2.63c.19-.87.26-1.53,1-1.53s.68.94.75,1.27C40,11.58,41.25,10,42.47,10Z"/><path class="cls-2" d="M51.94,9.46h.13c.29,0,.59.37.64.68a18.4,18.4,0,0,1,.59,2,30.47,30.47,0,0,1,.43,4.66,5.36,5.36,0,0,1-.06,1.22.4.4,0,0,1-.24.07c-.42,0-.75-.46-1-1l-.08-1.27h-.7c-.77,0-1,0-1.21,0s-.11,0-.13,0c-.33.11-.48,1-.79,1.77l-.24.64a.72.72,0,0,1-.52.17c-.13,0-.26,0-.44-.06a1.4,1.4,0,0,1-.41-1.07,4.05,4.05,0,0,1,.61-1.89.75.75,0,0,0-.66-.78l.05-.42a1.37,1.37,0,0,0,.3,0h.72a32.07,32.07,0,0,1,1.64-3.08l1.05-1.29.07-.26C51.77,9.46,51.83,9.46,51.94,9.46Zm-.41,4.66a4.5,4.5,0,0,0,.63,0,4.52,4.52,0,0,0-.31-1.88c-.3.09-.78,1.36-.94,1.88A4.29,4.29,0,0,0,51.53,14.12Z"/><path class="cls-2" d="M60.14,12.24a1.71,1.71,0,0,1-.94.24,1.48,1.48,0,0,0,.2-.57c0-.09-.07-.18-.26-.18a3.39,3.39,0,0,0-.6.11A3.18,3.18,0,0,0,55.83,15c0,1,.53,1.49,1.71,1.49.52,0,2.14-.13,2.14-1.56,0-.28-.65-.3-1-.3a1.5,1.5,0,0,0-1.35.92c-.48-.16-.51-.33-.51-.68,0-1.4,2-1.45,3-1.45a1.46,1.46,0,0,1,1.57,1.43c0,2-1.46,3.08-4,3.08-2.21,0-3.06-1-3.06-3a5.18,5.18,0,0,1,4.53-4.82c1.09,0,1.64.35,1.64,1.1a2.24,2.24,0,0,1-.27,1Z"/><path class="cls-2" d="M66.83,4.36a1.3,1.3,0,0,1,1.23,1.18c0,1.69-2.89,3.61-4.33,3.61A4.79,4.79,0,0,1,62.35,9c-.24.28-.33.52-.66.56s-.5-.46-.54-.94a2.38,2.38,0,0,1,.06-.37,2.19,2.19,0,0,1-.57-1.31c0-1.44,2.17-3.37,4.25-3.37,1,0,1.72.37,1.85.85Zm-5,2.58a.16.16,0,0,0,.11,0,21.05,21.05,0,0,1,1.71-1.75v0a.13.13,0,0,0,0-.11A2.23,2.23,0,0,0,61.71,6.9.15.15,0,0,0,61.8,6.94Zm2.08,4.77c0,1.77.22,3.63.22,5.38,0,.35-.13.77-.68.77a2.22,2.22,0,0,1-.61-.13c-.29-.09-.42-.95-.44-1.16,0-1.12,0-1.14.07-2.3,0-.31.08-1.51.37-3.72,0-.11,0-.15.13-.15C63.73,10.42,63.84,10.88,63.88,11.71ZM63.2,7.86h.48c1.1,0,3.33-.74,3.33-2.08,0-.3,0-.54-.57-.54-1.27,0-2.52,1.22-3.41,2.45C63,7.73,63.14,7.86,63.2,7.86Z"/><path class="cls-2" d="M69.41,9.68c0-.18,0-.46.22-.46.61,0,2.36,2.16,2.36,5.2,0,1.34-.61,2.93-1.68,2.93-1.27,0-2.6-4.06-2.91-4.06,0,0-.11.06-.15.24s-.11,2.56-.22,3.23c-.07.31-.18,1-.66,1-.7,0-.85-1.2-.85-1.73,0-1.13.57-5.16,1.51-5.16.65,0,2,2.74,3.13,4.18.08.09.13.17.15.17s.13-.19.13-.56c0-2-.42-2.61-1-4.66l-.07-.27Z"/><path class="cls-2" d="M76.65,9.46h.13c.29,0,.59.37.64.68a20.88,20.88,0,0,1,.59,2,30.47,30.47,0,0,1,.43,4.66,5.36,5.36,0,0,1-.06,1.22.42.42,0,0,1-.24.07c-.42,0-.75-.46-1-1l-.08-1.27h-.7c-.77,0-1,0-1.21,0s-.11,0-.13,0c-.33.11-.48,1-.79,1.77l-.24.64a.74.74,0,0,1-.52.17c-.13,0-.26,0-.44-.06a1.37,1.37,0,0,1-.41-1.07,4.05,4.05,0,0,1,.61-1.89.75.75,0,0,0-.66-.78l0-.42a1.37,1.37,0,0,0,.3,0h.72a32.07,32.07,0,0,1,1.64-3.08l1-1.29.07-.26C76.47,9.46,76.54,9.46,76.65,9.46Zm-.42,4.66a4.57,4.57,0,0,0,.64,0,4.52,4.52,0,0,0-.31-1.88c-.3.09-.78,1.36-.94,1.88A4.22,4.22,0,0,0,76.23,14.12Z"/><path class="cls-2" d="M82.14,20a1.77,1.77,0,0,1-1.1-.72,4.45,4.45,0,0,1-.39-2.21,14.8,14.8,0,0,1,.74-4.57c-1.48-.59-2.27-1.29-2.27-2.15,0-.28.11-.85.44-1s.11.55.26.68A4.45,4.45,0,0,0,82.2,11c.4-.37,1-1.31,2.1-1.31.59,0,1.51.17,1.51,1.77,0,1.25-1.77,1.47-2.54,1.47h-.13a17.85,17.85,0,0,0-.43,4.44c0,.85,0,1.68,0,2.4A.69.69,0,0,1,82.14,20ZM84,11.21c.35,0,1-.26,1-.55a.34.34,0,0,0-.33-.35,1,1,0,0,0-1,.85A1.29,1.29,0,0,0,84,11.21Z"/><path class="cls-2" d="M91.39,4.36a1.29,1.29,0,0,1,1.22,1.18c0,1.69-2.89,3.61-4.33,3.61A4.84,4.84,0,0,1,86.9,9c-.24.28-.32.52-.65.56s-.51-.46-.55-.94a1.61,1.61,0,0,1,.07-.37A2.19,2.19,0,0,1,85.2,6.9c0-1.44,2.16-3.37,4.24-3.37,1,0,1.73.37,1.86.85C91.32,4.38,91.34,4.36,91.39,4.36Zm-5,2.58a.21.21,0,0,0,.11,0,20.79,20.79,0,0,1,1.7-1.75v0a.15.15,0,0,0,0-.11A2.23,2.23,0,0,0,86.27,6.9.11.11,0,0,0,86.36,6.94Zm2.08,4.77c0,1.77.21,3.63.21,5.38,0,.35-.13.77-.67.77a2.29,2.29,0,0,1-.62-.13c-.28-.09-.41-.95-.43-1.16,0-1.12,0-1.14.06-2.3,0-.31.09-1.51.37-3.72,0-.11,0-.15.13-.15C88.28,10.42,88.39,10.88,88.44,11.71Zm-.68-3.85h.48c1.09,0,3.32-.74,3.32-2.08,0-.3,0-.54-.57-.54-1.27,0-2.51,1.22-3.41,2.45C87.58,7.73,87.69,7.86,87.76,7.86Z"/><path class="cls-2" d="M89.92,14.18a4.16,4.16,0,0,1,4.2-4.07,3.28,3.28,0,0,1,1.16.18c.35.15.55.31.55.44s-.27.26-.46.28h0a2.68,2.68,0,0,1,1.49.42,2.55,2.55,0,0,1,.65,1.75c0,2.69-2.88,4.48-5.51,4.59a2,2,0,0,1-.61.7A2.69,2.69,0,0,1,90.75,17V17A5.37,5.37,0,0,1,89.92,14.18Zm4.88-3.1a7.08,7.08,0,0,0-1,.24,3.37,3.37,0,0,0-2.65,3.32,2.15,2.15,0,0,0,.09.66c.94-2.41,1.79-3.72,3-4.09A2.83,2.83,0,0,1,94.8,11.08Zm-2.12,4.83H93c1.16,0,3.35-1.33,3.35-2.87,0-.45-.35-.69-.88-.69C94.27,12.35,93.49,13.74,92.68,15.91Zm2.12-4.83a.14.14,0,0,1,.11,0A.14.14,0,0,0,94.8,11.08Z"/><path class="cls-2" d="M101.9,9.68c0-.18,0-.46.22-.46.62,0,2.37,2.16,2.37,5.2,0,1.34-.62,2.93-1.69,2.93-1.27,0-2.6-4.06-2.91-4.06,0,0-.11.06-.15.24s-.11,2.56-.22,3.23c-.06.31-.17,1-.66,1-.69,0-.85-1.2-.85-1.73,0-1.13.57-5.16,1.51-5.16.66,0,2,2.74,3.13,4.18.09.09.13.17.15.17s.13-.19.13-.56c0-2-.41-2.61-1-4.66l-.07-.27Z"/><path class="cls-2" d="M118.79,14.25a.81.81,0,0,1-.46-.13,5.09,5.09,0,0,0-3.61-1.53c-1,0-2.34.32-2.34,1.75,0,1.81,4.11,2.55,5,2.55,4.22,0,5.34-2.8,5.34-4.15,0-4.94-10.46-.7-10.46-5.91,0-3.23,4-4.83,7.81-4.83a3.94,3.94,0,0,1,3.74,2,.76.76,0,0,1,.09.35c0,.74-1.1,1.4-1.62,1.4l-.13,0a.05.05,0,0,1-.05,0s0,0,0,0a1.74,1.74,0,0,0,.46-.88.32.32,0,0,0,0-.13c-.11-.3-1.44-.81-3.28-.81s-5,.68-5,3c0,3.65,10.37-.55,10.37,6.51,0,3.9-4.51,5.27-6.43,5.27-2.14,0-6.63-1.42-6.63-4.11,0-2.1,2.12-2.93,3.81-2.93a4.93,4.93,0,0,1,4.48,2C119.9,13.94,119.27,14.25,118.79,14.25Z"/><path class="cls-2" d="M130.35,16.76A6,6,0,0,1,127,18.25a1.7,1.7,0,0,1-1.75-1.84,7,7,0,0,1,.55-1.86,2,2,0,0,1-.17-.56,1.36,1.36,0,0,1,.11-.44,2.11,2.11,0,0,1,.57-.18l.52-1.2c-.5-.24-1.25-.52-1.25-1,0-.24.2-.31.57-.33a31.2,31.2,0,0,1,3.79-.44,3.09,3.09,0,0,1,.89.15c.2.24.7.7.7,1.08,0,.21-.76.45-1.18.48-.94.06-1.16,0-1.75.06a1.83,1.83,0,0,0-.33,0,1.41,1.41,0,0,0-.26.92.2.2,0,0,0,.2.22h1.62l.3,0a1.25,1.25,0,0,1,.13.64c0,.17,0,.5-.24.52-.39,0-1.38.07-2.47.07,0,0-.09,0-.13.09a9.16,9.16,0,0,1-.52,1.46c.1,0,.94-.22,2.34-.35.21,0,.5,0,.72,0s.54.37.54.65S130.46,16.7,130.35,16.76Z"/><path class="cls-2" d="M133,17.9a1.07,1.07,0,0,1-1.05-1,13.75,13.75,0,0,1,.81-4.77c.08-.33.52-.48.89-.48s.57.11.57.37a33.82,33.82,0,0,0-.65,5.41A.56.56,0,0,1,133,17.9Zm-.48-6.8c0-.53,1.37-1,2-1,2.63,0,4.16,1.16,4.16,3.28a2.25,2.25,0,0,1-1,1.77,14.09,14.09,0,0,1,1.42,2.25.78.78,0,0,1-.57,1.14.27.27,0,0,1-.22-.09c-.06-.08-1.11-1.57-1.94-2.62a4.86,4.86,0,0,1-1.23.17A1.11,1.11,0,0,1,134,14.84c0-.42.68-.81,1.22-.81a3.45,3.45,0,0,1,1.4.28,1.85,1.85,0,0,0,.49-1.05c0-1.68-1.91-2-2.93-2-.44,0-.84.27-1.19.29C132.65,11.43,132.52,11.25,132.52,11.1Zm3.26,4c-.27-.26-.33-.31-.62-.31s-.41.11-.41.24a.34.34,0,0,0,.37.31A1,1,0,0,0,135.78,15.08Z"/><path class="cls-2" d="M140.56,10.07a15,15,0,0,1,.75,1.6l1.07,3.56a1.18,1.18,0,0,0,.22.44l2.05-4.51c.27-.52.44-1,.75-1.11,0,0,0,0,.11,0,.28,0,.87.37.87.65a3.65,3.65,0,0,1-.48,1.51l-2,4.49a3.44,3.44,0,0,1-.5.87,2.25,2.25,0,0,1-1.1.26,2.68,2.68,0,0,1-.81-.13l-.5-1.79c-.22-.7-1.38-3.74-1.73-4.57v-.16a1.48,1.48,0,0,1,.51-1.09Z"/><path class="cls-2" d="M152,16.76a6,6,0,0,1-3.36,1.49,1.69,1.69,0,0,1-1.75-1.84,6.91,6.91,0,0,1,.54-1.86,2,2,0,0,1-.17-.56,1.36,1.36,0,0,1,.11-.44,2.11,2.11,0,0,1,.57-.18l.52-1.2c-.5-.24-1.25-.52-1.25-1,0-.24.2-.31.57-.33a31.2,31.2,0,0,1,3.79-.44,3.09,3.09,0,0,1,.89.15c.2.24.7.7.7,1.08,0,.21-.76.45-1.18.48-.94.06-1.16,0-1.75.06a1.83,1.83,0,0,0-.33,0,1.41,1.41,0,0,0-.26.92.2.2,0,0,0,.2.22h1.62l.3,0a1.25,1.25,0,0,1,.13.64c0,.17,0,.5-.24.52-.39,0-1.37.07-2.47.07,0,0-.09,0-.13.09a9.16,9.16,0,0,1-.52,1.46c.11,0,.94-.22,2.34-.35.21,0,.5,0,.72,0s.55.37.55.65A.35.35,0,0,1,152,16.76Z"/><path class="cls-2" d="M154.69,17.9a1.07,1.07,0,0,1-1.05-1,13.75,13.75,0,0,1,.81-4.77c.09-.33.52-.48.89-.48s.57.11.57.37a33.82,33.82,0,0,0-.65,5.41A.56.56,0,0,1,154.69,17.9Zm-.48-6.8c0-.53,1.37-1,2-1,2.62,0,4.15,1.16,4.15,3.28a2.25,2.25,0,0,1-1,1.77,14.09,14.09,0,0,1,1.42,2.25.78.78,0,0,1-.57,1.14.27.27,0,0,1-.22-.09c-.06-.08-1.11-1.57-1.94-2.62a4.86,4.86,0,0,1-1.23.17,1.11,1.11,0,0,1-1.18-1.11c0-.42.68-.81,1.23-.81a3.53,3.53,0,0,1,1.4.28,1.89,1.89,0,0,0,.48-1.05c0-1.68-1.91-2-2.93-2a11.34,11.34,0,0,0-1.18.29C154.34,11.43,154.21,11.25,154.21,11.1Zm3.26,4c-.27-.26-.33-.31-.62-.31s-.41.11-.41.24a.34.34,0,0,0,.37.31A1,1,0,0,0,157.47,15.08Z"/></g></g></svg>